<svg width="980" height="551" xmlns="http://www.w3.org/2000/svg" xmlns:xlink="http://www.w3.org/1999/xlink">
<path fill="#ff595e" d="M 817.17 383.01 Q 817.17 383.01 817.17 383.02 817.17 383.02 817.16 383.02 817.16 383.03 817.17 383.02 Z" data-drauu_index="1"></path><path fill="#ff595e" d="M 721.85 424.77 Q 721.85 424.77 721.85 424.78 721.84 424.78 721.84 424.78 721.84 424.79 721.84 424.78 Z" data-drauu_index="2"></path><path fill="#ff595e" d="M 844.86 419.33 Q 844.86 419.33 844.86 419.33 844.85 419.33 844.85 419.34 844.85 419.34 844.85 419.33 Z" data-drauu_index="3"></path><path fill="#ff595e" d="M 323.77 309.48 Q 323.77 309.48 323.77 309.48 323.76 309.49 323.76 309.49 323.75 309.49 323.76 309.49 Z" data-drauu_index="4"></path><path fill="#ff595e" d="M 298.29 292.56 Q 298.29 292.56 298.29 292.57 298.29 292.57 298.29 292.58 298.29 292.58 298.29 292.57 Z" data-drauu_index="5"></path>
</svg>