<svg width="980" height="551" xmlns="http://www.w3.org/2000/svg" xmlns:xlink="http://www.w3.org/1999/xlink">
<path fill="#ff595e" d="M 388.77 175.96 Q 388.77 175.96 390.66 174.97 392.55 173.97 394.56 173.97 396.58 173.97 399.15 173.97 401.73 173.97 405.58 173.97 409.43 173.97 414.17 173.97 418.90 173.97 424.02 173.97 429.13 173.97 434.92 173.97 440.71 173.97 449.89 173.97 459.06 173.97 466.41 173.97 473.75 173.97 481.35 173.97 488.95 173.97 496.83 173.97 504.71 173.97 511.85 173.97 518.98 173.97 525.15 174.15 531.31 174.32 537.54 174.56 543.78 174.81 549.70 175.09 555.63 175.36 560.73 175.65 565.84 175.94 569.36 176.07 572.89 176.19 575.75 176.24 578.62 176.29 581.04 176.31 583.47 176.34 585.45 176.52 587.43 176.71 588.55 176.78 589.67 176.86 591.15 176.94 592.64 177.01 594.24 178.16 595.84 179.31 595.83 179.31 595.83 179.31 595.83 179.32 595.82 179.32 594.19 180.10 592.56 180.88 590.98 180.87 589.40 180.85 588.22 180.77 587.05 180.69 585.24 180.51 583.43 180.34 580.99 180.31 578.55 180.29 575.65 180.24 572.75 180.19 569.18 180.06 565.61 179.94 560.53 179.65 555.44 179.36 549.53 179.08 543.62 178.81 537.41 178.56 531.19 178.32 525.09 178.14 518.98 177.97 511.85 177.97 504.71 177.97 496.83 177.97 488.95 177.97 481.35 177.97 473.75 177.97 466.41 177.97 459.06 177.97 449.89 177.97 440.71 177.97 434.92 177.97 429.13 177.97 424.02 177.97 418.90 177.97 414.17 177.97 409.43 177.97 405.58 177.97 401.73 177.97 399.15 177.97 396.58 177.97 394.56 177.97 392.55 177.97 390.66 176.98 388.77 175.98 388.77 175.97 Z" data-drauu_index="4"></path><path fill="#ff595e" d="M 570.27 162.19 Q 570.27 162.19 571.30 161.20 572.34 160.22 574.16 160.42 575.98 160.62 577.03 161.09 578.09 161.55 579.63 162.47 581.17 163.40 582.31 164.12 583.45 164.84 584.66 165.69 585.87 166.54 586.98 167.18 588.10 167.83 589.24 168.72 590.37 169.61 591.29 170.28 592.20 170.94 593.95 171.90 595.71 172.86 596.78 173.86 597.84 174.86 598.00 174.83 598.15 174.80 598.35 174.94 598.55 175.08 598.71 175.26 598.87 175.44 598.98 175.66 599.09 175.87 599.14 176.10 599.20 176.34 599.20 176.58 599.20 176.82 599.14 177.05 599.08 177.29 598.96 177.50 598.85 177.71 598.69 177.89 598.53 178.07 598.33 178.21 598.13 178.34 597.90 178.43 597.68 178.51 597.44 178.54 597.20 178.56 596.96 178.53 596.72 178.50 596.49 178.42 596.27 178.33 595.25 178.61 594.23 178.89 592.65 179.49 591.07 180.10 590.10 180.49 589.12 180.89 587.42 181.65 585.72 182.41 584.64 182.97 583.55 183.53 582.40 184.11 581.25 184.69 580.07 185.28 578.89 185.87 577.70 186.47 576.52 187.06 575.55 187.63 574.59 188.20 573.66 188.78 572.74 189.36 571.83 189.95 570.92 190.54 570.02 191.14 569.12 191.73 568.32 192.43 567.51 193.12 566.63 194.15 565.75 195.17 563.96 195.98 562.17 196.79 562.16 196.79 562.16 196.78 562.16 196.78 562.16 196.78 562.86 194.23 563.56 191.68 564.23 190.88 564.91 190.09 565.91 189.24 566.91 188.39 567.83 187.79 568.74 187.19 569.68 186.58 570.61 185.97 571.59 185.36 572.57 184.74 573.65 184.12 574.72 183.49 575.91 182.89 577.10 182.30 578.27 181.71 579.44 181.12 580.58 180.55 581.72 179.97 582.78 179.43 583.83 178.89 584.86 178.35 585.89 177.80 587.60 177.16 589.31 176.51 590.40 175.99 591.50 175.48 592.51 175.21 593.53 174.95 594.68 174.76 595.83 174.57 596.99 174.69 598.15 174.80 598.35 174.94 598.55 175.08 598.71 175.26 598.87 175.44 598.98 175.66 599.09 175.87 599.14 176.10 599.20 176.34 599.20 176.58 599.20 176.82 599.14 177.05 599.08 177.29 598.96 177.50 598.85 177.71 598.69 177.89 598.53 178.07 598.33 178.21 598.13 178.34 597.90 178.43 597.68 178.51 597.44 178.54 597.20 178.56 596.96 178.53 596.72 178.50 596.49 178.42 596.27 178.33 596.24 178.31 596.21 178.30 595.41 177.63 594.60 176.97 593.29 176.12 591.97 175.27 590.91 174.73 589.86 174.18 588.87 173.46 587.88 172.75 586.98 172.01 586.08 171.28 584.82 170.55 583.57 169.81 582.44 169.02 581.31 168.22 580.21 167.52 579.10 166.82 576.96 165.64 574.83 164.46 573.58 164.31 572.34 164.17 571.30 163.19 570.27 162.21 570.27 162.20 Z" data-drauu_index="5"></path><path fill="#ff595e" d="M 342.04 207.12 Q 342.04 207.12 342.04 207.12 342.04 207.12 342.04 207.12 Z" data-drauu_index="6"></path><path fill="#ff595e" d="M 342.62 207.69 Q 342.62 207.69 342.62 207.69 342.62 207.70 342.61 207.70 342.61 207.70 342.62 207.70 Z" data-drauu_index="7"></path><path fill="#ff595e" d="M 216.23 435.32 Q 216.23 435.32 216.23 435.32 216.22 435.33 216.22 435.33 216.22 435.33 216.22 435.33 Z" data-drauu_index="8"></path>
</svg>