<svg width="980" height="551" xmlns="http://www.w3.org/2000/svg" xmlns:xlink="http://www.w3.org/1999/xlink">
<path fill="#ff595e" d="M 332.04 122.13 Q 332.04 122.13 333.34 120.82 334.64 119.51 336.09 119.13 337.53 118.74 338.75 118.41 339.96 118.07 342.37 117.50 344.77 116.92 347.07 116.43 349.36 115.93 351.87 115.46 354.38 114.99 357.47 114.46 360.56 113.92 366.92 113.35 373.28 112.77 379.35 112.45 385.43 112.12 391.31 111.98 397.19 111.84 402.30 111.79 407.42 111.73 412.37 111.70 417.32 111.68 422.88 111.67 428.44 111.66 434.01 111.65 439.57 111.65 444.89 111.64 450.20 111.64 454.67 111.73 459.14 111.81 463.10 112.10 467.07 112.39 471.22 112.85 475.36 113.32 479.05 113.77 482.75 114.22 485.88 114.75 489.01 115.28 492.02 115.85 495.03 116.41 497.45 117.00 499.87 117.59 501.85 118.18 503.84 118.78 505.50 119.28 507.16 119.78 508.63 120.36 510.09 120.93 511.16 121.45 512.24 121.96 513.94 122.75 515.65 123.54 516.64 124.14 517.63 124.74 518.92 125.50 520.21 126.25 521.13 127.95 522.05 129.66 522.04 129.66 522.04 129.67 522.04 129.67 522.04 129.67 519.79 129.45 517.54 129.23 516.14 128.46 514.75 127.69 513.58 126.96 512.41 126.23 511.46 125.90 510.50 125.57 509.56 125.11 508.61 124.65 507.31 124.13 506.01 123.61 504.35 123.11 502.68 122.61 500.80 122.04 498.92 121.47 496.61 120.91 494.29 120.34 491.31 119.79 488.33 119.23 485.30 118.71 482.26 118.19 478.59 117.74 474.92 117.29 470.85 116.84 466.78 116.38 462.92 116.09 459.06 115.81 454.63 115.73 450.20 115.64 444.89 115.64 439.58 115.65 434.01 115.65 428.45 115.66 422.90 115.67 417.34 115.68 412.40 115.70 407.46 115.73 402.37 115.78 397.29 115.84 391.46 115.98 385.64 116.12 379.64 116.44 373.64 116.76 367.44 117.31 361.24 117.86 358.18 118.40 355.11 118.93 352.66 119.38 350.20 119.84 347.95 120.33 345.70 120.82 343.36 121.37 341.02 121.93 339.79 122.27 338.56 122.61 337.03 123.01 335.51 123.42 333.77 122.78 332.04 122.15 332.04 122.14 Z" data-drauu_index="0"></path><path fill="#ff595e" d="M 526.64 103.09 Q 526.64 103.09 528.03 103.88 529.43 104.68 530.11 105.72 530.79 106.75 531.59 107.99 532.39 109.23 533.39 110.66 534.39 112.09 536.91 115.56 539.44 119.03 541.37 121.70 543.29 124.36 545.19 126.91 547.10 129.46 549.56 132.45 552.03 135.44 553.84 137.56 555.65 139.67 557.05 141.12 558.46 142.57 559.52 143.48 560.57 144.39 561.55 145.22 562.52 146.05 563.69 146.94 564.85 147.83 565.80 148.28 566.75 148.73 566.92 148.78 567.09 148.84 567.27 149.00 567.45 149.15 567.59 149.35 567.73 149.55 567.82 149.77 567.90 150.00 567.94 150.23 567.97 150.47 567.94 150.71 567.92 150.95 567.83 151.18 567.75 151.41 567.61 151.61 567.48 151.81 567.30 151.97 567.12 152.13 566.91 152.24 566.70 152.36 566.46 152.42 566.23 152.48 565.99 152.48 565.75 152.48 565.51 152.43 565.28 152.37 565.07 152.26 564.85 152.15 565.93 152.12 567.01 152.08 565.98 152.32 564.94 152.56 562.61 152.56 560.27 152.56 558.44 152.56 556.60 152.57 554.56 152.57 552.51 152.57 550.33 152.65 548.16 152.73 545.83 152.93 543.50 153.14 541.26 153.39 539.01 153.64 537.15 153.91 535.29 154.19 533.34 154.55 531.40 154.91 529.12 155.33 526.83 155.74 524.98 156.16 523.13 156.57 521.57 156.92 520.00 157.27 518.48 157.59 516.96 157.91 515.77 158.21 514.57 158.51 512.01 158.12 509.46 157.73 509.46 157.73 509.45 157.72 509.45 157.72 509.45 157.71 511.53 156.17 513.61 154.62 514.88 154.31 516.14 154.00 517.63 153.69 519.13 153.37 520.69 153.02 522.25 152.67 524.19 152.24 526.12 151.80 528.39 151.39 530.66 150.98 532.69 150.61 534.71 150.23 536.64 149.95 538.56 149.67 540.86 149.41 543.16 149.15 545.58 148.94 548.00 148.74 550.26 148.65 552.51 148.57 554.56 148.57 556.60 148.57 558.43 148.56 560.27 148.56 562.56 148.78 564.86 148.99 565.97 148.91 567.09 148.84 567.27 149.00 567.45 149.15 567.59 149.35 567.73 149.55 567.82 149.77 567.90 150.00 567.94 150.23 567.97 150.47 567.94 150.71 567.92 150.95 567.83 151.18 567.75 151.41 567.61 151.61 567.48 151.81 567.30 151.97 567.12 152.13 566.91 152.24 566.70 152.36 566.47 152.42 566.23 152.48 565.99 152.48 565.75 152.48 565.51 152.43 565.28 152.37 565.07 152.26 564.85 152.15 564.77 152.11 564.69 152.07 563.63 151.59 562.58 151.12 561.26 150.11 559.93 149.10 558.94 148.26 557.95 147.42 556.77 146.38 555.59 145.35 554.10 143.81 552.61 142.27 550.78 140.13 548.95 137.99 546.42 134.92 543.89 131.85 541.97 129.28 540.05 126.70 538.13 124.04 536.21 121.39 533.66 117.88 531.11 114.38 530.07 112.89 529.03 111.40 528.20 110.12 527.38 108.84 526.62 107.53 525.86 106.22 526.24 104.65 526.62 103.09 526.63 103.09 Z" data-drauu_index="1"></path>
</svg>