<svg width="980" height="551" xmlns="http://www.w3.org/2000/svg" xmlns:xlink="http://www.w3.org/1999/xlink">
<path fill="#ff595e" d="M 18.87 29.59 Q 18.87 29.59 21.28 28.60 23.70 27.60 27.13 27.60 30.57 27.60 34.44 27.60 38.31 27.60 42.77 27.60 47.23 27.60 51.94 27.60 56.65 27.60 60.86 27.60 65.07 27.60 68.27 27.60 71.47 27.60 73.63 27.60 75.79 27.60 78.52 28.92 81.25 30.24 81.25 30.24 81.25 30.25 81.25 30.25 81.25 30.26 78.52 30.93 75.79 31.60 73.63 31.60 71.47 31.60 68.27 31.60 65.07 31.60 60.86 31.60 56.65 31.60 51.94 31.60 47.23 31.60 42.77 31.60 38.31 31.60 34.44 31.60 30.57 31.60 27.13 31.60 23.70 31.60 21.28 30.61 18.87 29.61 18.87 29.60 Z" data-drauu_index="0"></path><path fill="#ff595e" d="M 31.47 55.47 Q 31.47 55.47 32.46 57.48 33.46 59.49 33.46 62.15 33.46 64.81 33.46 67.95 33.46 71.09 33.46 74.04 33.46 76.98 33.46 79.44 33.46 81.89 33.46 83.54 33.46 85.19 33.46 86.29 33.46 87.39 33.46 87.86 33.46 88.33 33.43 88.56 33.40 88.80 33.31 89.03 33.23 89.26 33.09 89.45 32.95 89.65 32.77 89.81 32.59 89.97 32.38 90.08 32.16 90.20 31.93 90.25 31.70 90.31 31.45 90.31 31.21 90.31 30.98 90.25 30.75 90.20 30.53 90.08 30.32 89.97 30.14 89.81 29.96 89.65 29.82 89.45 29.68 89.25 29.60 89.03 29.51 88.80 29.48 88.56 29.46 88.33 29.46 86.83 29.46 85.34 29.66 82.89 29.86 80.45 30.15 77.62 30.44 74.80 30.77 72.36 31.09 69.93 31.44 68.06 31.79 66.18 32.15 64.91 32.52 63.63 32.74 62.60 32.96 61.57 32.69 60.41 32.43 59.26 32.88 57.81 33.34 56.36 34.62 55.70 35.91 55.04 37.65 54.79 39.39 54.54 40.53 54.42 41.66 54.31 42.75 54.27 43.83 54.22 46.94 55.19 50.04 56.16 50.04 56.16 50.04 56.17 50.04 56.17 50.04 56.18 47.01 57.20 43.99 58.22 42.13 58.33 40.28 58.44 38.30 58.41 36.33 58.38 36.63 59.35 36.93 60.32 36.88 61.49 36.84 62.67 36.60 63.71 36.36 64.76 36.04 65.84 35.72 66.92 35.39 68.69 35.06 70.46 34.74 72.83 34.42 75.20 34.13 78.00 33.85 80.79 33.65 83.06 33.46 85.34 33.46 86.83 33.46 88.33 33.43 88.56 33.40 88.80 33.31 89.03 33.23 89.25 33.09 89.45 32.95 89.65 32.77 89.81 32.59 89.97 32.38 90.08 32.16 90.20 31.93 90.25 31.70 90.31 31.46 90.31 31.21 90.31 30.98 90.25 30.75 90.20 30.53 90.08 30.32 89.97 30.14 89.81 29.96 89.65 29.82 89.45 29.68 89.26 29.60 89.03 29.51 88.80 29.48 88.56 29.46 88.33 29.46 87.86 29.46 87.39 29.46 86.29 29.46 85.19 29.46 83.54 29.46 81.89 29.46 79.44 29.46 76.98 29.46 74.04 29.46 71.09 29.46 67.95 29.46 64.81 29.46 62.15 29.46 59.49 30.45 57.48 31.45 55.47 31.46 55.47 Z" data-drauu_index="1"></path><path fill="#ff595e" d="M 32.15 68.04 Q 32.15 68.04 33.36 67.04 34.57 66.05 36.47 66.05 38.38 66.05 39.40 66.07 40.43 66.09 42.26 67.06 44.09 68.04 44.09 68.04 44.09 68.05 44.09 68.05 44.09 68.06 42.26 69.03 40.43 70.01 39.40 70.03 38.38 70.05 36.47 70.05 34.57 70.05 33.36 69.05 32.15 68.06 32.15 68.05 Z" data-drauu_index="2"></path><path fill="#ff595e" d="M 50.33 72.93 Q 50.33 72.93 51.33 71.95 52.34 70.97 53.72 70.95 55.10 70.94 56.41 70.94 57.72 70.94 59.30 70.94 60.89 70.94 62.40 70.94 63.92 70.94 64.87 70.19 65.82 69.44 66.19 68.51 66.56 67.58 66.08 66.68 65.60 65.78 64.10 65.17 62.60 64.57 61.13 64.53 59.66 64.48 58.50 64.47 57.34 64.46 56.27 64.46 55.20 64.46 54.04 64.78 52.88 65.10 52.11 66.33 51.34 67.57 50.60 68.81 49.87 70.05 49.75 71.54 49.63 73.03 49.90 74.39 50.16 75.75 51.32 76.89 52.48 78.04 53.60 78.57 54.72 79.09 55.89 79.50 57.05 79.90 58.51 79.96 59.96 80.01 61.36 79.46 62.75 78.91 65.73 78.31 68.72 77.71 68.72 77.72 68.72 77.72 68.72 77.73 68.73 77.73 67.61 79.36 66.49 80.98 65.61 81.69 64.73 82.39 62.80 83.20 60.86 84.02 59.75 84.00 58.63 83.99 57.37 83.89 56.10 83.79 54.84 83.36 53.58 82.93 52.59 82.59 51.61 82.25 50.74 81.67 49.88 81.08 48.89 80.20 47.90 79.32 47.22 78.38 46.55 77.45 46.07 76.21 45.60 74.96 45.62 73.85 45.64 72.74 45.73 71.64 45.81 70.55 46.51 68.59 47.21 66.63 48.24 65.24 49.26 63.85 50.62 62.48 51.98 61.11 53.59 60.79 55.21 60.46 56.29 60.46 57.36 60.46 58.57 60.47 59.77 60.48 61.25 60.56 62.73 60.64 63.78 61.00 64.82 61.36 66.45 62.01 68.07 62.65 68.85 63.49 69.64 64.33 70.06 66.04 70.49 67.76 70.13 69.08 69.77 70.40 69.21 71.31 68.65 72.22 67.65 73.28 66.66 74.34 65.29 74.64 63.92 74.94 62.40 74.94 60.89 74.94 59.30 74.94 57.72 74.94 56.41 74.94 55.10 74.94 53.72 74.93 52.34 74.91 51.33 73.93 50.33 72.95 50.33 72.94 Z" data-drauu_index="3"></path><path fill="#ff595e" d="M 82.48 72.23 Q 82.48 72.23 83.89 71.24 85.30 70.24 87.12 70.24 88.95 70.24 90.32 70.24 91.70 70.24 92.70 70.24 93.71 70.24 94.92 70.25 96.12 70.26 97.38 69.58 98.64 68.89 99.46 68.27 100.28 67.65 99.08 67.45 97.87 67.26 97.29 66.44 96.70 65.61 95.78 64.65 94.85 63.68 94.09 62.92 93.34 62.16 92.22 61.96 91.09 61.75 90.02 61.70 88.95 61.65 88.03 62.34 87.11 63.02 86.24 64.17 85.38 65.32 84.77 67.01 84.16 68.69 83.71 69.84 83.25 70.99 83.19 72.47 83.12 73.94 83.69 75.41 84.27 76.88 85.38 78.24 86.50 79.59 87.96 80.39 89.41 81.18 90.43 81.08 91.45 80.98 93.00 80.46 94.55 79.93 95.98 79.01 97.41 78.08 99.43 78.21 101.45 78.34 101.45 78.35 101.45 78.35 101.46 78.35 101.46 78.36 100.42 79.88 99.38 81.40 98.40 82.11 97.42 82.82 95.83 83.58 94.24 84.34 93.22 84.63 92.21 84.91 91.13 85.06 90.04 85.22 88.88 85.01 87.73 84.80 86.44 84.18 85.16 83.55 84.33 82.89 83.50 82.24 82.79 81.41 82.07 80.59 81.37 79.61 80.67 78.63 80.11 77.40 79.55 76.17 79.36 74.18 79.18 72.19 79.26 71.17 79.35 70.14 79.87 68.75 80.39 67.36 80.74 66.38 81.08 65.41 81.70 63.94 82.32 62.48 83.17 61.42 84.02 60.37 85.04 59.70 86.06 59.03 87.45 58.36 88.84 57.69 90.38 57.76 91.91 57.83 93.16 58.15 94.41 58.46 95.55 59.17 96.70 59.87 97.55 60.73 98.40 61.59 99.12 62.36 99.84 63.13 100.48 63.96 101.13 64.79 102.24 65.79 103.35 66.79 103.33 68.50 103.32 70.20 102.51 70.92 101.69 71.63 100.24 72.45 98.79 73.26 97.53 73.74 96.27 74.23 94.99 74.23 93.71 74.24 92.70 74.24 91.70 74.24 90.32 74.24 88.95 74.24 87.12 74.24 85.30 74.24 83.89 73.25 82.48 72.25 82.48 72.24 Z" data-drauu_index="4"></path><path fill="#ff595e" d="M 121.62 67.36 Q 121.62 67.36 120.33 67.45 119.05 67.54 117.92 67.15 116.78 66.75 115.27 66.67 113.76 66.58 112.50 66.57 111.24 66.55 110.39 67.11 109.54 67.67 109.60 68.72 109.65 69.77 109.65 71.67 109.65 73.57 109.65 74.60 109.65 75.62 109.65 77.02 109.65 78.41 110.97 79.06 112.29 79.72 113.66 80.49 115.02 81.27 117.52 80.70 120.01 80.13 120.02 80.13 120.02 80.14 120.02 80.14 120.03 80.14 118.69 82.42 117.35 84.70 115.92 85.00 114.48 85.29 113.25 84.66 112.01 84.02 110.63 83.37 109.25 82.73 107.67 81.63 106.08 80.52 105.86 79.47 105.65 78.41 105.65 77.01 105.65 75.62 105.65 73.60 105.65 71.58 105.66 69.89 105.67 68.20 105.89 67.08 106.11 65.95 107.05 64.89 107.99 63.82 109.60 63.19 111.20 62.56 112.52 62.57 113.85 62.58 115.50 62.67 117.15 62.76 118.20 63.12 119.25 63.49 120.52 64.11 121.79 64.74 121.71 66.04 121.63 67.34 121.63 67.35 Z" data-drauu_index="5"></path><path fill="#ff595e" d="M 122.34 53.37 Q 122.34 53.37 123.29 54.57 124.25 55.78 124.29 57.10 124.32 58.42 124.11 59.75 123.89 61.08 123.59 62.26 123.29 63.44 122.95 64.54 122.62 65.65 122.28 66.72 121.93 67.79 121.59 68.85 121.24 69.91 120.91 71.12 120.57 72.33 120.22 73.49 119.86 74.65 119.51 75.74 119.15 76.84 118.80 77.91 118.45 78.98 117.94 80.47 117.44 81.96 116.05 83.32 114.66 84.68 114.65 84.68 114.65 84.68 114.64 84.68 114.64 84.68 114.15 82.95 113.67 81.23 114.16 79.48 114.65 77.73 115.00 76.68 115.35 75.62 115.69 74.54 116.04 73.47 116.38 72.36 116.72 71.26 117.08 69.96 117.44 68.67 117.78 67.62 118.12 66.57 118.46 65.53 118.79 64.49 119.10 63.46 119.42 62.43 119.68 61.41 119.95 60.40 120.14 59.40 120.33 58.41 120.36 57.09 120.40 55.78 121.36 54.57 122.32 53.37 122.33 53.37 Z" data-drauu_index="6"></path><path fill="#ff595e" d="M 131.42 49.87 Q 131.42 49.87 132.42 51.68 133.41 53.49 133.20 55.19 132.99 56.89 132.70 58.43 132.40 59.96 132.07 61.42 131.74 62.88 131.41 64.48 131.07 66.07 130.72 67.58 130.38 69.09 130.02 70.37 129.66 71.66 129.31 72.97 128.97 74.28 128.62 75.64 128.27 77.00 128.15 78.25 128.03 79.49 127.75 80.80 127.46 82.10 127.27 83.93 127.09 85.76 125.76 86.84 124.43 87.91 124.43 87.91 124.43 87.91 124.43 87.91 124.43 87.91 124.43 87.91 124.43 87.91 124.43 87.92 124.43 87.92 124.43 87.92 124.43 87.92 124.43 87.92 124.42 87.92 124.42 87.92 124.42 87.92 124.42 87.92 124.42 87.92 124.42 87.92 124.42 87.92 124.42 87.91 124.42 87.91 124.42 87.91 124.42 87.91 124.41 87.91 124.41 87.91 124.41 87.91 124.41 87.91 124.42 87.91 124.42 87.91 124.43 87.91 124.43 87.91 124.43 87.91 124.43 87.91 124.43 87.91 124.43 87.91 124.43 87.91 124.43 87.91 124.43 87.92 124.43 87.92 124.43 87.92 124.43 87.92 124.43 87.92 124.42 87.92 124.42 87.92 124.42 87.92 124.42 87.92 124.42 87.92 124.42 87.92 124.42 87.92 124.42 87.91 124.42 87.91 124.42 87.91 124.42 87.91 124.41 87.91 124.41 87.91 124.41 87.91 124.41 87.91 123.86 85.79 123.30 83.68 123.43 82.46 123.56 81.23 123.80 80.15 124.05 79.07 124.22 77.54 124.40 76.02 124.75 74.64 125.10 73.26 125.45 71.92 125.81 70.57 126.14 69.38 126.48 68.19 126.82 66.72 127.16 65.25 127.50 63.63 127.84 62.00 128.16 60.60 128.47 59.20 128.75 57.79 129.03 56.38 129.22 54.94 129.41 53.49 130.41 51.68 131.40 49.87 131.41 49.87 Z" data-drauu_index="7"></path><path fill="#ff595e" d="M 129.32 68.74 Q 129.32 68.74 130.52 67.74 131.73 66.75 132.94 66.75 134.16 66.75 135.35 66.75 136.55 66.75 137.72 67.08 138.89 67.42 140.42 68.19 141.95 68.96 142.76 69.69 143.57 70.43 144.30 71.48 145.03 72.54 145.16 73.62 145.29 74.70 144.67 75.88 144.05 77.07 143.48 78.30 142.92 79.54 141.57 80.26 140.22 80.97 138.80 81.68 137.39 82.39 136.32 82.88 135.26 83.36 134.14 83.63 133.02 83.91 131.78 84.30 130.54 84.70 129.48 84.67 128.43 84.64 126.89 83.97 125.35 83.31 125.34 83.30 125.34 83.30 125.34 83.30 125.34 83.29 126.88 82.05 128.42 80.81 129.42 80.77 130.43 80.73 131.39 80.36 132.34 79.99 133.35 79.65 134.36 79.31 135.38 78.96 136.40 78.62 137.75 77.94 139.11 77.26 139.89 76.35 140.67 75.45 140.78 74.42 140.89 73.39 140.16 72.65 139.44 71.91 137.99 71.33 136.55 70.75 135.35 70.75 134.16 70.75 132.94 70.75 131.73 70.75 130.52 69.75 129.32 68.76 129.32 68.75 Z" data-drauu_index="8"></path><path fill="#ff595e" d="M 163.56 75.74 Q 163.56 75.74 162.40 75.17 161.25 74.61 160.82 73.26 160.39 71.91 159.84 71.00 159.29 70.10 158.03 69.74 156.78 69.38 155.57 69.37 154.35 69.35 153.26 70.22 152.17 71.10 151.67 72.15 151.17 73.21 150.78 74.47 150.38 75.74 149.97 76.94 149.55 78.13 149.78 79.27 150.01 80.41 151.24 80.81 152.47 81.20 154.05 81.30 155.63 81.39 156.79 81.41 157.96 81.42 158.46 80.54 158.95 79.66 159.55 78.47 160.14 77.27 160.77 75.46 161.40 73.66 161.91 73.37 162.42 73.09 162.66 73.07 162.90 73.04 163.13 73.08 163.37 73.11 163.60 73.20 163.82 73.30 164.01 73.44 164.21 73.58 164.36 73.76 164.52 73.95 164.63 74.17 164.73 74.38 164.78 74.62 164.84 74.85 164.83 75.09 164.82 75.33 164.76 75.57 164.70 75.80 164.58 76.01 164.46 76.22 164.30 76.40 164.13 76.57 163.93 76.70 163.73 76.84 163.50 76.92 163.27 77.00 164.07 76.19 164.86 75.38 164.51 76.54 164.16 77.71 163.82 78.66 163.47 79.62 163.47 80.66 163.47 81.71 164.35 83.58 165.23 85.45 165.23 85.46 165.22 85.46 165.22 85.47 165.22 85.47 162.54 84.91 159.85 84.36 159.66 83.03 159.47 81.71 159.47 80.65 159.47 79.59 159.59 78.52 159.72 77.46 160.29 76.48 160.86 75.51 161.64 74.30 162.42 73.09 162.66 73.07 162.90 73.04 163.13 73.08 163.37 73.11 163.60 73.20 163.82 73.30 164.01 73.44 164.21 73.58 164.36 73.76 164.52 73.95 164.63 74.16 164.73 74.38 164.78 74.62 164.84 74.85 164.83 75.09 164.82 75.33 164.76 75.57 164.70 75.80 164.58 76.01 164.46 76.22 164.30 76.40 164.13 76.57 163.93 76.70 163.73 76.84 163.50 76.92 163.27 77.00 163.14 77.03 163.00 77.06 163.58 76.23 164.17 75.40 164.14 76.51 164.11 77.63 163.68 78.64 163.24 79.65 162.55 80.93 161.87 82.21 161.38 83.14 160.89 84.07 159.41 84.75 157.92 85.42 156.71 85.40 155.49 85.39 153.96 85.29 152.44 85.19 150.79 84.50 149.14 83.81 147.94 82.91 146.74 82.00 146.07 81.24 145.40 80.48 145.23 79.30 145.05 78.13 145.58 76.79 146.11 75.46 146.53 74.20 146.95 72.94 147.75 71.60 148.55 70.26 149.47 68.79 150.39 67.33 151.16 66.67 151.94 66.01 153.16 65.68 154.38 65.35 155.50 65.38 156.61 65.42 158.00 65.77 159.40 66.12 160.56 66.52 161.73 66.91 162.57 67.98 163.42 69.05 163.81 70.04 164.20 71.03 164.64 72.34 165.08 73.65 164.33 74.69 163.58 75.73 163.57 75.74 Z" data-drauu_index="9"></path><path fill="#ff595e" d="M 176.84 69.46 Q 176.84 69.46 175.81 70.19 174.77 70.92 173.76 70.84 172.74 70.75 171.53 71.41 170.32 72.07 169.35 73.25 168.38 74.42 168.02 75.36 167.67 76.30 168.03 77.25 168.39 78.19 169.24 78.87 170.09 79.55 171.27 79.77 172.45 80.00 173.87 80.01 175.29 80.02 176.55 79.60 177.81 79.18 180.85 78.62 183.90 78.06 183.90 78.07 183.90 78.07 183.90 78.08 183.90 78.08 182.62 79.91 181.34 81.74 179.39 82.65 177.44 83.57 176.36 83.79 175.27 84.02 174.19 83.99 173.11 83.97 171.53 83.63 169.96 83.29 168.68 82.88 167.39 82.48 166.57 81.87 165.75 81.26 165.08 80.24 164.41 79.22 164.04 77.57 163.68 75.93 163.83 74.89 163.99 73.86 164.71 72.79 165.43 71.73 166.15 70.95 166.87 70.18 167.57 69.42 168.27 68.66 169.33 67.99 170.39 67.33 171.80 67.05 173.20 66.77 174.45 66.97 175.71 67.17 176.28 68.30 176.85 69.44 176.85 69.45 Z" data-drauu_index="10"></path><path fill="#ff595e" d="M 192.24 51.27 Q 192.24 51.27 193.02 53.00 193.81 54.74 193.51 56.12 193.20 57.49 192.88 58.86 192.55 60.23 192.21 61.61 191.87 62.99 191.52 64.22 191.16 65.45 190.79 66.43 190.41 67.42 190.26 68.51 190.11 69.60 189.78 70.92 189.45 72.24 189.19 73.24 188.92 74.25 188.56 75.82 188.19 77.38 187.79 78.93 187.39 80.48 187.03 81.88 186.67 83.29 185.26 84.56 183.86 85.83 183.86 85.83 183.85 85.83 183.85 85.83 183.84 85.83 183.57 83.54 183.30 81.24 183.63 79.96 183.97 78.67 184.18 77.39 184.40 76.12 184.73 74.66 185.06 73.20 185.42 71.57 185.79 69.94 186.03 68.93 186.28 67.91 186.80 66.12 187.32 64.34 187.65 63.19 187.99 62.04 188.32 60.67 188.66 59.30 188.98 57.96 189.30 56.62 189.57 55.43 189.84 54.24 191.03 52.75 192.22 51.27 192.23 51.27 Z" data-drauu_index="11"></path><path fill="#ff595e" d="M 187.33 75.73 Q 187.33 75.73 188.09 74.24 188.85 72.74 189.76 72.28 190.68 71.83 192.21 71.06 193.73 70.30 194.77 69.74 195.82 69.19 198.33 69.13 200.85 69.06 200.85 69.07 200.85 69.07 200.85 69.07 200.86 69.08 199.19 70.95 197.52 72.82 196.52 73.35 195.53 73.88 194.00 74.64 192.47 75.41 191.55 75.86 190.64 76.32 188.99 76.03 187.34 75.75 187.33 75.74 Z" data-drauu_index="12"></path><path fill="#ff595e" d="M 192.24 73.64 Q 192.24 73.64 193.59 74.77 194.95 75.91 195.15 77.01 195.34 78.11 195.87 79.47 196.39 80.83 196.60 83.48 196.81 86.14 196.81 86.14 196.81 86.15 196.81 86.15 196.81 86.16 195.17 84.92 193.54 83.69 192.78 82.21 192.02 80.74 191.56 78.87 191.11 77.00 191.66 75.32 192.22 73.64 192.23 73.64 Z" data-drauu_index="14"></path>
</svg>